<?xml version="1.0" encoding="UTF-8" standalone="no"?>
<!-- Created with Inkscape (http://www.inkscape.org/) -->

<svg
   xmlns:dc="http://purl.org/dc/elements/1.1/"
   xmlns:cc="http://creativecommons.org/ns#"
   xmlns:rdf="http://www.w3.org/1999/02/22-rdf-syntax-ns#"
   xmlns:svg="http://www.w3.org/2000/svg"
   xmlns="http://www.w3.org/2000/svg"
   xmlns:sodipodi="http://sodipodi.sourceforge.net/DTD/sodipodi-0.dtd"
   xmlns:inkscape="http://www.inkscape.org/namespaces/inkscape"
   width="550"
   height="520"
   id="svg2"
   version="1.1"
   inkscape:version="0.48.5 r10040"
   sodipodi:docname="iconoinicioplano.svg">
  <defs
     id="defs4" />
  <sodipodi:namedview
     id="base"
     pagecolor="#ffffff"
     bordercolor="#666666"
     borderopacity="1.0"
     inkscape:pageopacity="0.0"
     inkscape:pageshadow="2"
     inkscape:zoom="0.66898931"
     inkscape:cx="371.35318"
     inkscape:cy="390.76111"
     inkscape:document-units="px"
     inkscape:current-layer="layer3"
     showgrid="false"
     inkscape:window-width="1366"
     inkscape:window-height="706"
     inkscape:window-x="-8"
     inkscape:window-y="-8"
     inkscape:window-maximized="1" />
  <metadata
     id="metadata7">
    <rdf:RDF>
      <cc:Work
         rdf:about="">
        <dc:format>image/svg+xml</dc:format>
        <dc:type
           rdf:resource="http://purl.org/dc/dcmitype/StillImage" />
        <dc:title></dc:title>
      </cc:Work>
    </rdf:RDF>
  </metadata>
  <g
     inkscape:label="Capa 1"
     inkscape:groupmode="layer"
     id="layer1"
     transform="translate(0,-532.36218)">
    <path
       sodipodi:type="arc"
       style="fill:#040404;fill-opacity:1"
       id="path3793"
       sodipodi:cx="310.75143"
       sodipodi:cy="268.08472"
       sodipodi:rx="135.29315"
       sodipodi:ry="122.60941"
       d="m 446.04459,268.08472 a 135.29315,122.60941 0 1 1 -270.58631,0 135.29315,122.60941 0 1 1 270.58631,0 z"
       transform="matrix(1.8478393,0,0,2.0389952,-308.78364,246.7486)" />
  </g>
  <g
     inkscape:groupmode="layer"
     id="layer2"
     inkscape:label="CIRCULO MEDIANO"
     transform="translate(0,-532.36218)">
    <path
       sodipodi:type="arc"
       style="fill:#ffffff;fill-opacity:1"
       id="path3793-1"
       sodipodi:cx="310.75143"
       sodipodi:cy="268.08472"
       sodipodi:rx="135.29315"
       sodipodi:ry="122.60941"
       d="m 446.04459,268.08472 a 135.29315,122.60941 0 1 1 -270.58631,0 135.29315,122.60941 0 1 1 270.58631,0 z"
       transform="matrix(1.4782714,0,0,1.6311961,-191.71006,361.06066)" />
  </g>
  <g
     inkscape:groupmode="layer"
     id="layer3"
     inkscape:label="CIRUCLOPEÑO"
     transform="translate(0,-532.36218)">
    <path
       sodipodi:type="arc"
       style="fill:#000000;fill-opacity:0"
       id="path3817"
       sodipodi:cx="358.31543"
       sodipodi:cy="769.09216"
       sodipodi:rx="176.51527"
       sodipodi:ry="86.672173"
       d="m 534.8307,769.09216 c 0,47.86772 -79.02858,86.67218 -176.51527,86.67218 -97.48669,0 -176.51527,-38.80446 -176.51527,-86.67218 0,-47.86772 79.02858,-86.67217 176.51527,-86.67217 97.48669,0 176.51527,38.80445 176.51527,86.67217 z" />
    <path
       sodipodi:type="arc"
       style="fill:#000000;fill-opacity:0"
       id="path3819"
       sodipodi:cx="386.85385"
       sodipodi:cy="753.23749"
       sodipodi:rx="95.127991"
       sodipodi:ry="66.589592"
       d="m 481.98184,753.23749 c 0,36.77641 -42.59025,66.58959 -95.12799,66.58959 -52.53774,0 -95.12799,-29.81318 -95.12799,-66.58959 0,-36.77642 42.59025,-66.58959 95.12799,-66.58959 52.53774,0 95.12799,29.81317 95.12799,66.58959 z" />
    <path
       sodipodi:type="arc"
       style="fill:#000000;fill-opacity:0"
       id="path3821"
       sodipodi:cx="325.54913"
       sodipodi:cy="725.75604"
       sodipodi:rx="71.874481"
       sodipodi:ry="36.994221"
       d="m 397.42361,725.75604 c 0,20.43135 -32.1793,36.99422 -71.87448,36.99422 -39.69518,0 -71.87448,-16.56287 -71.87448,-36.99422 0,-20.43134 32.1793,-36.99422 71.87448,-36.99422 39.69518,0 71.87448,16.56288 71.87448,36.99422 z" />
    <path
       sodipodi:type="arc"
       style="fill:#000000;fill-opacity:1"
       id="path3823"
       sodipodi:cx="351.97357"
       sodipodi:cy="764.86426"
       sodipodi:rx="98.298927"
       sodipodi:ry="54.962841"
       d="m 450.2725,764.86426 a 98.298927,54.962841 0 1 1 -196.59786,0 98.298927,54.962841 0 1 1 196.59786,0 z"
       transform="matrix(1.5259576,0,0,2.7291166,-268.028,-1284.7251)" />
  </g>
</svg>
