<?xml version="1.0" encoding="UTF-8" standalone="no"?>
<!-- Created with Inkscape (http://www.inkscape.org/) -->

<svg
   xmlns:dc="http://purl.org/dc/elements/1.1/"
   xmlns:cc="http://creativecommons.org/ns#"
   xmlns:rdf="http://www.w3.org/1999/02/22-rdf-syntax-ns#"
   xmlns:svg="http://www.w3.org/2000/svg"
   xmlns="http://www.w3.org/2000/svg"
   xmlns:sodipodi="http://sodipodi.sourceforge.net/DTD/sodipodi-0.dtd"
   xmlns:inkscape="http://www.inkscape.org/namespaces/inkscape"
   width="530"
   height="520"
   id="svg3030"
   version="1.1"
   inkscape:version="0.48.5 r10040"
   sodipodi:docname="iconocontactoplano.svg">
  <defs
     id="defs3032" />
  <sodipodi:namedview
     id="base"
     pagecolor="#ffffff"
     bordercolor="#666666"
     borderopacity="1.0"
     inkscape:pageopacity="0.0"
     inkscape:pageshadow="2"
     inkscape:zoom="1.1658976"
     inkscape:cx="122.34519"
     inkscape:cy="402.26321"
     inkscape:document-units="px"
     inkscape:current-layer="layer1"
     showgrid="false"
     inkscape:window-width="1366"
     inkscape:window-height="706"
     inkscape:window-x="-8"
     inkscape:window-y="-8"
     inkscape:window-maximized="1" />
  <metadata
     id="metadata3035">
    <rdf:RDF>
      <cc:Work
         rdf:about="">
        <dc:format>image/svg+xml</dc:format>
        <dc:type
           rdf:resource="http://purl.org/dc/dcmitype/StillImage" />
        <dc:title />
      </cc:Work>
    </rdf:RDF>
  </metadata>
  <g
     inkscape:groupmode="layer"
     id="layer4"
     inkscape:label="cuerpo2">
    <path
       sodipodi:type="arc"
       style="fill:#666666;fill-opacity:1;stroke:#cccccc"
       id="path3026-4"
       sodipodi:cx="312.85715"
       sodipodi:cy="487.14285"
       sodipodi:rx="192.85715"
       sodipodi:ry="155.71428"
       d="m 120.00117,486.59931 a 192.85715,155.71428 0 0 1 385.71312,0.54354 l -192.85714,0 z"
       transform="matrix(1.0518515,0,0,1.2935779,-182.41176,-120.08731)"
       sodipodi:start="3.1450833"
       sodipodi:end="6.2831853" />
  </g>
  <g
     inkscape:label="cabezas"
     inkscape:groupmode="layer"
     id="layer1"
     transform="translate(0,-532.36218)">
    <path
       sodipodi:type="arc"
       style="fill:#000000;fill-opacity:1"
       id="path3019"
       sodipodi:cx="307.14285"
       sodipodi:cy="155.71428"
       sodipodi:rx="110"
       sodipodi:ry="95.714287"
       d="m 417.14285,155.71428 c 0,52.86154 -49.24867,95.71429 -110,95.71429 -60.75132,0 -110,-42.85275 -110,-95.71429 0,-52.86154 49.24868,-95.714288 110,-95.714288 60.75133,0 110,42.852748 110,95.714288 z"
       transform="matrix(0.95454545,0,0,0.94776342,101.364,505.08981)" />
    <path
       sodipodi:type="arc"
       style="fill:#666666;fill-opacity:1"
       id="path3019-1"
       sodipodi:cx="307.14285"
       sodipodi:cy="155.71428"
       sodipodi:rx="110"
       sodipodi:ry="95.714287"
       d="m 417.14285,155.71428 c 0,52.86154 -49.24867,95.71429 -110,95.71429 -60.75132,0 -110,-42.85275 -110,-95.71429 0,-52.86154 49.24868,-95.714288 110,-95.714288 60.75133,0 110,42.852748 110,95.714288 z"
       transform="matrix(0.95454545,0,0,0.94776342,-135.36349,513.6669)" />
  </g>
  <g
     inkscape:groupmode="layer"
     id="layer3"
     inkscape:label="cuerpo1">
    <path
       sodipodi:type="arc"
       style="fill:#000000;fill-opacity:1"
       id="path3026"
       sodipodi:cx="312.85715"
       sodipodi:cy="487.14285"
       sodipodi:rx="192.85715"
       sodipodi:ry="155.71428"
       d="m 120.00117,486.59931 a 192.85715,155.71428 0 0 1 385.71312,0.54354 l -192.85714,0 z"
       transform="matrix(1.0518515,0,0,1.2935779,84.335519,-119.2296)"
       sodipodi:start="3.1450833"
       sodipodi:end="6.2831853" />
  </g>
</svg>
